<?xml version="1.0" encoding="utf-8"?>
<svg xmlns="http://www.w3.org/2000/svg" xmlns:xlink="http://www.w3.org/1999/xlink" style="margin: auto; background: none; display: block; shape-rendering: auto;" width="201px" height="201px" viewBox="0 0 100 100" preserveAspectRatio="xMidYMid">
<g transform="rotate(0 50 50)">
  <rect x="43.5" y="19.5" rx="6.5" ry="8.5" width="13" height="17" fill="#8cd0e5">
    <animate attributeName="opacity" values="1;0" keyTimes="0;1" dur="1.333333333333333s" begin="-1.2666666666666666s" repeatCount="indefinite"></animate>
  </rect>
</g><g transform="rotate(18 50 50)">
  <rect x="43.5" y="19.5" rx="6.5" ry="8.5" width="13" height="17" fill="#376888">
    <animate attributeName="opacity" values="1;0" keyTimes="0;1" dur="1.333333333333333s" begin="-1.2s" repeatCount="indefinite"></animate>
  </rect>
</g><g transform="rotate(36 50 50)">
  <rect x="43.5" y="19.5" rx="6.5" ry="8.5" width="13" height="17" fill="#826b88">
    <animate attributeName="opacity" values="1;0" keyTimes="0;1" dur="1.333333333333333s" begin="-1.1333333333333333s" repeatCount="indefinite"></animate>
  </rect>
</g><g transform="rotate(54 50 50)">
  <rect x="43.5" y="19.5" rx="6.5" ry="8.5" width="13" height="17" fill="#de786a">
    <animate attributeName="opacity" values="1;0" keyTimes="0;1" dur="1.333333333333333s" begin="-1.0666666666666664s" repeatCount="indefinite"></animate>
  </rect>
</g><g transform="rotate(72 50 50)">
  <rect x="43.5" y="19.5" rx="6.5" ry="8.5" width="13" height="17" fill="#f8b976">
    <animate attributeName="opacity" values="1;0" keyTimes="0;1" dur="1.333333333333333s" begin="-0.9999999999999999s" repeatCount="indefinite"></animate>
  </rect>
</g><g transform="rotate(90 50 50)">
  <rect x="43.5" y="19.5" rx="6.5" ry="8.5" width="13" height="17" fill="#fcddc9">
    <animate attributeName="opacity" values="1;0" keyTimes="0;1" dur="1.333333333333333s" begin="-0.9333333333333332s" repeatCount="indefinite"></animate>
  </rect>
</g><g transform="rotate(108 50 50)">
  <rect x="43.5" y="19.5" rx="6.5" ry="8.5" width="13" height="17" fill="#8cd0e5">
    <animate attributeName="opacity" values="1;0" keyTimes="0;1" dur="1.333333333333333s" begin="-0.8666666666666666s" repeatCount="indefinite"></animate>
  </rect>
</g><g transform="rotate(126 50 50)">
  <rect x="43.5" y="19.5" rx="6.5" ry="8.5" width="13" height="17" fill="#376888">
    <animate attributeName="opacity" values="1;0" keyTimes="0;1" dur="1.333333333333333s" begin="-0.7999999999999999s" repeatCount="indefinite"></animate>
  </rect>
</g><g transform="rotate(144 50 50)">
  <rect x="43.5" y="19.5" rx="6.5" ry="8.5" width="13" height="17" fill="#826b88">
    <animate attributeName="opacity" values="1;0" keyTimes="0;1" dur="1.333333333333333s" begin="-0.7333333333333333s" repeatCount="indefinite"></animate>
  </rect>
</g><g transform="rotate(162 50 50)">
  <rect x="43.5" y="19.5" rx="6.5" ry="8.5" width="13" height="17" fill="#de786a">
    <animate attributeName="opacity" values="1;0" keyTimes="0;1" dur="1.333333333333333s" begin="-0.6666666666666666s" repeatCount="indefinite"></animate>
  </rect>
</g><g transform="rotate(180 50 50)">
  <rect x="43.5" y="19.5" rx="6.5" ry="8.5" width="13" height="17" fill="#f8b976">
    <animate attributeName="opacity" values="1;0" keyTimes="0;1" dur="1.333333333333333s" begin="-0.6s" repeatCount="indefinite"></animate>
  </rect>
</g><g transform="rotate(198 50 50)">
  <rect x="43.5" y="19.5" rx="6.5" ry="8.5" width="13" height="17" fill="#fcddc9">
    <animate attributeName="opacity" values="1;0" keyTimes="0;1" dur="1.333333333333333s" begin="-0.5333333333333332s" repeatCount="indefinite"></animate>
  </rect>
</g><g transform="rotate(216 50 50)">
  <rect x="43.5" y="19.5" rx="6.5" ry="8.5" width="13" height="17" fill="#8cd0e5">
    <animate attributeName="opacity" values="1;0" keyTimes="0;1" dur="1.333333333333333s" begin="-0.4666666666666666s" repeatCount="indefinite"></animate>
  </rect>
</g><g transform="rotate(234 50 50)">
  <rect x="43.5" y="19.5" rx="6.5" ry="8.5" width="13" height="17" fill="#376888">
    <animate attributeName="opacity" values="1;0" keyTimes="0;1" dur="1.333333333333333s" begin="-0.39999999999999997s" repeatCount="indefinite"></animate>
  </rect>
</g><g transform="rotate(252 50 50)">
  <rect x="43.5" y="19.5" rx="6.5" ry="8.5" width="13" height="17" fill="#826b88">
    <animate attributeName="opacity" values="1;0" keyTimes="0;1" dur="1.333333333333333s" begin="-0.3333333333333333s" repeatCount="indefinite"></animate>
  </rect>
</g><g transform="rotate(270 50 50)">
  <rect x="43.5" y="19.5" rx="6.5" ry="8.5" width="13" height="17" fill="#de786a">
    <animate attributeName="opacity" values="1;0" keyTimes="0;1" dur="1.333333333333333s" begin="-0.2666666666666666s" repeatCount="indefinite"></animate>
  </rect>
</g><g transform="rotate(288 50 50)">
  <rect x="43.5" y="19.5" rx="6.5" ry="8.5" width="13" height="17" fill="#f8b976">
    <animate attributeName="opacity" values="1;0" keyTimes="0;1" dur="1.333333333333333s" begin="-0.19999999999999998s" repeatCount="indefinite"></animate>
  </rect>
</g><g transform="rotate(306 50 50)">
  <rect x="43.5" y="19.5" rx="6.5" ry="8.5" width="13" height="17" fill="#fcddc9">
    <animate attributeName="opacity" values="1;0" keyTimes="0;1" dur="1.333333333333333s" begin="-0.1333333333333333s" repeatCount="indefinite"></animate>
  </rect>
</g><g transform="rotate(324 50 50)">
  <rect x="43.5" y="19.5" rx="6.5" ry="8.5" width="13" height="17" fill="#8cd0e5">
    <animate attributeName="opacity" values="1;0" keyTimes="0;1" dur="1.333333333333333s" begin="-0.06666666666666665s" repeatCount="indefinite"></animate>
  </rect>
</g><g transform="rotate(342 50 50)">
  <rect x="43.5" y="19.5" rx="6.5" ry="8.5" width="13" height="17" fill="#376888">
    <animate attributeName="opacity" values="1;0" keyTimes="0;1" dur="1.333333333333333s" begin="0s" repeatCount="indefinite"></animate>
  </rect>
</g>
<!-- [ldio] generated by https://loading.io/ --></svg>